# xmcd
#
# Track frame offsets:
# 150
# 12204
# 23074
# 32946
# 46120
# 68480
# 86123
# 100159
# 121507
# 181553
# 185256
# 207330
# 223045
# 245835
# 259851
#
# Disc length: 3860 seconds
#
#
# Revision: 4
# Processed by: cddbd v1.5.1PL0 Copyright (c) Steve Scherf et al.
# Submitted via: FreeRIP 2.90 
#
DISCID=c10f120f
DTITLE=Various Artist - Blues Giants 2
DYEAR=1900
DGENRE=Blues
TTITLE0=Lightning Hopkins - Talk Of The Town
TTITLE1=B.B.King - Catfish Blues
TTITLE2=John Lee Hooker - I'm Leaving
TTITLE3=Jimmy Reed - The Sun Is Shining
TTITLE4=Bukka White - Baby Please Don't Go
TTITLE5=T-Bone Walker - Afraid To Close My Eyes
TTITLE6=Memphis Slim - Slim's Blues
TTITLE7=John Mayhall - A Big Man
TTITLE8=Guitar Shorty - The Blues Is Allright
TTITLE9=Missisissippi John Hurt - C.H.I.C.K.E.N. Blues
TTITLE10=Lightning Slim - Voodoo Blues
TTITLE11=Howling Wolf - I Ain't Superstitious
TTITLE12=Etta James - Stormy Monday
TTITLE13=LeadBelly - Boll Weevil Blues
TTITLE14=Big Joe Turner - How Long Blues
EXTD=Eigentümer Daniel Perlick
EXTT0=
EXTT1=
EXTT2=
EXTT3=
EXTT4=
EXTT5=
EXTT6=
EXTT7=
EXTT8=
EXTT9=
EXTT10=
EXTT11=
EXTT12=
EXTT13=
EXTT14=
PLAYORDER=
